<?xml version="1.0" encoding="UTF-8" standalone="no"?><!-- Generator: Gravit.io --><svg xmlns="http://www.w3.org/2000/svg" xmlns:xlink="http://www.w3.org/1999/xlink" style="isolation:isolate" viewBox="0 0 320 60" width="320pt" height="60pt"><defs><clipPath id="_clipPath_JuaQZmGm2JOEvGDXlATmfw61x6avL9V7"><rect width="320" height="60"/></clipPath></defs><g clip-path="url(#_clipPath_JuaQZmGm2JOEvGDXlATmfw61x6avL9V7)"><clipPath id="_clipPath_ehgMr3imFFO1yC7BaD2kkk2YsDGnwTM6"><rect x="6" y="5" width="50" height="50" transform="matrix(1,0,0,1,0,0)" fill="rgb(255,255,255)"/></clipPath><g clip-path="url(#_clipPath_ehgMr3imFFO1yC7BaD2kkk2YsDGnwTM6)"><g><g><path d=" M 45.121 14.414 L 41.983 14.414 C 41.174 14.414 40.518 15.07 40.518 15.879 L 40.518 19.225 C 40.518 20.034 41.174 20.69 41.983 20.69 L 45.121 20.69 C 47.658 20.69 49.724 22.756 49.724 25.293 L 49.724 34.707 C 49.724 37.237 47.699 39.31 45.041 39.31 L 41.983 39.31 C 41.174 39.31 40.518 39.966 40.518 40.775 L 40.518 44.121 C 40.518 44.93 41.174 45.586 41.983 45.586 L 45.121 45.586 C 51.13 45.586 56 40.725 56 34.707 L 56 25.293 C 56 19.287 51.138 14.414 45.121 14.414 L 45.121 14.414 Z " fill="rgb(255,120,0)"/><path d=" M 35.707 55 L 16.879 55 C 12.603 55 9.138 51.542 9.138 47.259 L 9.138 15.879 C 9.138 15.07 9.794 14.414 10.603 14.414 L 41.983 14.414 C 42.792 14.414 43.448 15.07 43.448 15.879 L 43.448 47.259 C 43.448 51.533 39.99 55 35.707 55 Z " fill="rgb(255,200,0)"/><path d=" M 43.448 47.259 L 43.448 15.879 C 43.448 15.07 42.792 14.414 41.983 14.414 L 26.293 14.414 L 26.293 55 L 35.707 55 C 39.99 55 43.448 51.533 43.448 47.259 Z " fill="rgb(255,160,0)"/><path d=" M 46.58 12.503 C 46.466 10.258 44.712 8.399 42.476 8.164 C 41.681 8.08 40.898 8.201 40.19 8.5 C 39.038 7.284 37.423 6.569 35.707 6.569 C 34.429 6.569 33.192 6.972 32.164 7.691 C 30.715 5.998 28.595 5 26.293 5 C 23.99 5 21.87 5.998 20.421 7.691 C 19.393 6.972 18.156 6.569 16.879 6.569 C 15.163 6.569 13.547 7.284 12.396 8.5 C 11.834 8.263 11.227 8.138 10.603 8.138 C 8.035 8.138 5.952 10.251 6.001 12.83 C 6.049 15.35 8.16 17.344 10.68 17.344 L 13.949 17.344 C 14.873 17.344 15.622 18.093 15.622 19.017 L 15.622 22.155 C 15.622 24.702 17.681 26.758 20.225 26.758 C 22.768 26.758 24.828 24.688 24.828 22.155 L 24.828 18.809 C 24.828 18 25.484 17.344 26.293 17.344 C 27.102 17.344 27.758 18 27.758 18.809 L 27.758 33.061 C 27.758 35.586 29.76 37.699 32.284 37.74 C 34.862 37.782 36.963 35.697 36.963 33.138 L 36.963 19.017 C 36.963 18.093 37.713 17.344 38.637 17.344 L 41.983 17.344 C 44.6 17.344 46.714 15.149 46.58 12.503 L 46.58 12.503 Z " fill="rgb(250,245,240)"/><path d=" M 26.293 17.344 C 27.102 17.344 27.758 18 27.758 18.809 L 27.758 33.061 C 27.758 35.586 29.76 37.699 32.284 37.74 C 34.862 37.782 36.963 35.697 36.963 33.138 L 36.963 19.017 C 36.963 18.093 37.713 17.344 38.637 17.344 L 41.983 17.344 C 44.6 17.344 46.714 15.149 46.58 12.503 C 46.466 10.258 44.712 8.399 42.476 8.164 C 41.68 8.081 40.898 8.201 40.19 8.501 C 39.038 7.284 37.423 6.569 35.707 6.569 C 34.429 6.569 33.192 6.972 32.164 7.691 C 30.715 5.998 28.595 5 26.293 5 L 26.293 17.344 Z " fill="rgb(230,227,220)"/></g></g></g><path d=" M 195.204 45.389 L 192.896 45.389 L 184.537 23.549 L 184.402 23.549 L 184.402 23.549 Q 184.638 26.144 184.638 29.717 L 184.638 29.717 L 184.638 45.389 L 181.993 45.389 L 181.993 20.751 L 186.307 20.751 L 194.109 41.075 L 194.244 41.075 L 202.114 20.751 L 206.394 20.751 L 206.394 45.389 L 203.529 45.389 L 203.529 29.514 L 203.529 29.514 Q 203.529 26.784 203.765 23.582 L 203.765 23.582 L 203.63 23.582 L 195.204 45.389 Z  M 224.867 45.389 L 222.794 45.389 L 222.238 42.76 L 222.103 42.76 L 222.103 42.76 Q 220.722 44.496 219.348 45.111 L 219.348 45.111 L 219.348 45.111 Q 217.975 45.726 215.919 45.726 L 215.919 45.726 L 215.919 45.726 Q 213.172 45.726 211.613 44.31 L 211.613 44.31 L 211.613 44.31 Q 210.054 42.895 210.054 40.283 L 210.054 40.283 L 210.054 40.283 Q 210.054 34.688 219.003 34.418 L 219.003 34.418 L 222.137 34.317 L 222.137 33.171 L 222.137 33.171 Q 222.137 30.997 221.202 29.961 L 221.202 29.961 L 221.202 29.961 Q 220.267 28.925 218.211 28.925 L 218.211 28.925 L 218.211 28.925 Q 215.902 28.925 212.987 30.34 L 212.987 30.34 L 212.127 28.2 L 212.127 28.2 Q 213.492 27.458 215.118 27.037 L 215.118 27.037 L 215.118 27.037 Q 216.745 26.616 218.379 26.616 L 218.379 26.616 L 218.379 26.616 Q 221.682 26.616 223.275 28.082 L 223.275 28.082 L 223.275 28.082 Q 224.867 29.548 224.867 32.784 L 224.867 32.784 L 224.867 45.389 Z  M 216.475 43.417 L 216.475 43.417 L 216.475 43.417 Q 219.087 43.417 220.578 41.985 L 220.578 41.985 L 220.578 41.985 Q 222.07 40.552 222.07 37.974 L 222.07 37.974 L 222.07 36.306 L 219.272 36.424 L 219.272 36.424 Q 215.936 36.542 214.461 37.46 L 214.461 37.46 L 214.461 37.46 Q 212.987 38.378 212.987 40.316 L 212.987 40.316 L 212.987 40.316 Q 212.987 41.833 213.905 42.625 L 213.905 42.625 L 213.905 42.625 Q 214.823 43.417 216.475 43.417 Z  M 237.762 26.582 L 237.762 26.582 L 237.762 26.582 Q 238.992 26.582 239.97 26.784 L 239.97 26.784 L 239.582 29.38 L 239.582 29.38 Q 238.436 29.127 237.56 29.127 L 237.56 29.127 L 237.56 29.127 Q 235.319 29.127 233.726 30.947 L 233.726 30.947 L 233.726 30.947 Q 232.134 32.767 232.134 35.48 L 232.134 35.48 L 232.134 45.389 L 229.336 45.389 L 229.336 26.919 L 231.645 26.919 L 231.965 30.34 L 232.1 30.34 L 232.1 30.34 Q 233.128 28.537 234.577 27.56 L 234.577 27.56 L 234.577 27.56 Q 236.027 26.582 237.762 26.582 Z  M 244.928 26.919 L 244.928 45.389 L 242.13 45.389 L 242.13 26.919 L 244.928 26.919 Z  M 242.012 24.476 L 242.012 24.054 L 242.012 24.054 Q 242.821 23.01 243.757 21.527 L 243.757 21.527 L 243.757 21.527 Q 244.692 20.044 245.231 18.948 L 245.231 18.948 L 248.635 18.948 L 248.635 19.302 L 248.635 19.302 Q 247.894 20.397 246.428 21.998 L 246.428 21.998 L 246.428 21.998 Q 244.961 23.599 243.883 24.476 L 243.883 24.476 L 242.012 24.476 Z  M 255.531 43.417 L 255.531 43.417 L 255.531 43.417 Q 256.272 43.417 256.963 43.308 L 256.963 43.308 L 256.963 43.308 Q 257.654 43.198 258.059 43.08 L 258.059 43.08 L 258.059 45.22 L 258.059 45.22 Q 257.604 45.439 256.719 45.583 L 256.719 45.583 L 256.719 45.583 Q 255.834 45.726 255.126 45.726 L 255.126 45.726 L 255.126 45.726 Q 249.768 45.726 249.768 40.08 L 249.768 40.08 L 249.768 29.093 L 247.122 29.093 L 247.122 27.745 L 249.768 26.582 L 250.947 22.639 L 252.565 22.639 L 252.565 26.919 L 257.924 26.919 L 257.924 29.093 L 252.565 29.093 L 252.565 39.963 L 252.565 39.963 Q 252.565 41.631 253.357 42.524 L 253.357 42.524 L 253.357 42.524 Q 254.149 43.417 255.531 43.417 Z  M 263.253 26.919 L 263.253 45.389 L 260.455 45.389 L 260.455 26.919 L 263.253 26.919 Z  M 260.219 21.914 L 260.219 21.914 L 260.219 21.914 Q 260.219 20.954 260.691 20.507 L 260.691 20.507 L 260.691 20.507 Q 261.163 20.06 261.871 20.06 L 261.871 20.06 L 261.871 20.06 Q 262.545 20.06 263.033 20.515 L 263.033 20.515 L 263.033 20.515 Q 263.522 20.97 263.522 21.914 L 263.522 21.914 L 263.522 21.914 Q 263.522 22.858 263.033 23.321 L 263.033 23.321 L 263.033 23.321 Q 262.545 23.785 261.871 23.785 L 261.871 23.785 L 261.871 23.785 Q 261.163 23.785 260.691 23.321 L 260.691 23.321 L 260.691 23.321 Q 260.219 22.858 260.219 21.914 Z  M 294.23 45.389 L 291.432 45.389 L 291.432 33.373 L 291.432 33.373 Q 291.432 31.166 290.489 30.062 L 290.489 30.062 L 290.489 30.062 Q 289.545 28.958 287.556 28.958 L 287.556 28.958 L 287.556 28.958 Q 284.944 28.958 283.697 30.458 L 283.697 30.458 L 283.697 30.458 Q 282.45 31.958 282.45 35.075 L 282.45 35.075 L 282.45 45.389 L 279.653 45.389 L 279.653 33.373 L 279.653 33.373 Q 279.653 31.166 278.709 30.062 L 278.709 30.062 L 278.709 30.062 Q 277.765 28.958 275.76 28.958 L 275.76 28.958 L 275.76 28.958 Q 273.131 28.958 271.909 30.534 L 271.909 30.534 L 271.909 30.534 Q 270.688 32.11 270.688 35.699 L 270.688 35.699 L 270.688 45.389 L 267.89 45.389 L 267.89 26.919 L 270.165 26.919 L 270.62 29.447 L 270.755 29.447 L 270.755 29.447 Q 271.547 28.099 272.988 27.34 L 272.988 27.34 L 272.988 27.34 Q 274.429 26.582 276.215 26.582 L 276.215 26.582 L 276.215 26.582 Q 280.546 26.582 281.877 29.717 L 281.877 29.717 L 282.012 29.717 L 282.012 29.717 Q 282.838 28.267 284.405 27.425 L 284.405 27.425 L 284.405 27.425 Q 285.972 26.582 287.978 26.582 L 287.978 26.582 L 287.978 26.582 Q 291.112 26.582 292.671 28.191 L 292.671 28.191 L 292.671 28.191 Q 294.23 29.801 294.23 33.34 L 294.23 33.34 L 294.23 45.389 Z  M 310.613 40.35 L 310.613 40.35 L 310.613 40.35 Q 310.613 42.928 308.692 44.327 L 308.692 44.327 L 308.692 44.327 Q 306.771 45.726 303.299 45.726 L 303.299 45.726 L 303.299 45.726 Q 299.626 45.726 297.57 44.563 L 297.57 44.563 L 297.57 41.968 L 297.57 41.968 Q 298.901 42.642 300.426 43.03 L 300.426 43.03 L 300.426 43.03 Q 301.951 43.417 303.367 43.417 L 303.367 43.417 L 303.367 43.417 Q 305.558 43.417 306.737 42.718 L 306.737 42.718 L 306.737 42.718 Q 307.917 42.018 307.917 40.586 L 307.917 40.586 L 307.917 40.586 Q 307.917 39.508 306.982 38.741 L 306.982 38.741 L 306.982 38.741 Q 306.046 37.974 303.333 36.929 L 303.333 36.929 L 303.333 36.929 Q 300.755 35.969 299.668 35.252 L 299.668 35.252 L 299.668 35.252 Q 298.581 34.536 298.05 33.626 L 298.05 33.626 L 298.05 33.626 Q 297.519 32.716 297.519 31.452 L 297.519 31.452 L 297.519 31.452 Q 297.519 29.194 299.356 27.888 L 299.356 27.888 L 299.356 27.888 Q 301.193 26.582 304.395 26.582 L 304.395 26.582 L 304.395 26.582 Q 307.378 26.582 310.226 27.795 L 310.226 27.795 L 309.231 30.07 L 309.231 30.07 Q 306.451 28.925 304.193 28.925 L 304.193 28.925 L 304.193 28.925 Q 302.204 28.925 301.193 29.548 L 301.193 29.548 L 301.193 29.548 Q 300.182 30.172 300.182 31.267 L 300.182 31.267 L 300.182 31.267 Q 300.182 32.008 300.561 32.531 L 300.561 32.531 L 300.561 32.531 Q 300.94 33.053 301.783 33.525 L 301.783 33.525 L 301.783 33.525 Q 302.625 33.997 305.018 34.89 L 305.018 34.89 L 305.018 34.89 Q 308.304 36.087 309.459 37.3 L 309.459 37.3 L 309.459 37.3 Q 310.613 38.513 310.613 40.35 Z  M 79.321 27.93 L 79.321 27.93 L 79.321 27.93 Q 79.321 31.671 76.767 33.685 L 76.767 33.685 L 76.767 33.685 Q 74.214 35.699 69.462 35.699 L 69.462 35.699 L 66.564 35.699 L 66.564 45.389 L 63.699 45.389 L 63.699 20.751 L 70.086 20.751 L 70.086 20.751 Q 79.321 20.751 79.321 27.93 Z  M 66.564 23.229 L 66.564 33.239 L 69.142 33.239 L 69.142 33.239 Q 72.951 33.239 74.653 32.008 L 74.653 32.008 L 74.653 32.008 Q 76.355 30.778 76.355 28.065 L 76.355 28.065 L 76.355 28.065 Q 76.355 25.622 74.754 24.425 L 74.754 24.425 L 74.754 24.425 Q 73.153 23.229 69.766 23.229 L 69.766 23.229 L 66.564 23.229 Z  M 82.559 26.919 L 85.391 26.919 L 85.391 38.901 L 85.391 38.901 Q 85.391 41.159 86.419 42.271 L 86.419 42.271 L 86.419 42.271 Q 87.447 43.383 89.637 43.383 L 89.637 43.383 L 89.637 43.383 Q 92.536 43.383 93.876 41.799 L 93.876 41.799 L 93.876 41.799 Q 95.215 40.215 95.215 36.626 L 95.215 36.626 L 95.215 26.919 L 98.013 26.919 L 98.013 45.389 L 95.704 45.389 L 95.3 42.912 L 95.148 42.912 L 95.148 42.912 Q 94.288 44.277 92.763 45.001 L 92.763 45.001 L 92.763 45.001 Q 91.238 45.726 89.283 45.726 L 89.283 45.726 L 89.283 45.726 Q 85.913 45.726 84.236 44.125 L 84.236 44.125 L 84.236 44.125 Q 82.559 42.524 82.559 39.002 L 82.559 39.002 L 82.559 26.919 Z  M 111.245 26.616 L 111.245 26.616 L 111.245 26.616 Q 114.885 26.616 116.899 29.101 L 116.899 29.101 L 116.899 29.101 Q 118.912 31.587 118.912 36.137 L 118.912 36.137 L 118.912 36.137 Q 118.912 40.687 116.882 43.207 L 116.882 43.207 L 116.882 43.207 Q 114.851 45.726 111.245 45.726 L 111.245 45.726 L 111.245 45.726 Q 109.442 45.726 107.95 45.06 L 107.95 45.06 L 107.95 45.06 Q 106.459 44.395 105.448 43.013 L 105.448 43.013 L 105.246 43.013 L 104.656 45.389 L 102.65 45.389 L 102.65 19.167 L 105.448 19.167 L 105.448 25.537 L 105.448 25.537 Q 105.448 27.677 105.313 29.38 L 105.313 29.38 L 105.448 29.38 L 105.448 29.38 Q 107.403 26.616 111.245 26.616 Z  M 110.84 28.958 L 110.84 28.958 L 110.84 28.958 Q 107.976 28.958 106.712 30.601 L 106.712 30.601 L 106.712 30.601 Q 105.448 32.244 105.448 36.137 L 105.448 36.137 L 105.448 36.137 Q 105.448 40.03 106.745 41.707 L 106.745 41.707 L 106.745 41.707 Q 108.043 43.383 110.908 43.383 L 110.908 43.383 L 110.908 43.383 Q 113.486 43.383 114.75 41.504 L 114.75 41.504 L 114.75 41.504 Q 116.014 39.625 116.014 36.103 L 116.014 36.103 L 116.014 36.103 Q 116.014 32.497 114.75 30.728 L 114.75 30.728 L 114.75 30.728 Q 113.486 28.958 110.84 28.958 Z  M 125.303 19.167 L 125.303 45.389 L 122.505 45.389 L 122.505 19.167 L 125.303 19.167 Z  M 143.371 45.389 L 141.299 45.389 L 140.742 42.76 L 140.608 42.76 L 140.608 42.76 Q 139.226 44.496 137.852 45.111 L 137.852 45.111 L 137.852 45.111 Q 136.479 45.726 134.423 45.726 L 134.423 45.726 L 134.423 45.726 Q 131.676 45.726 130.117 44.31 L 130.117 44.31 L 130.117 44.31 Q 128.558 42.895 128.558 40.283 L 128.558 40.283 L 128.558 40.283 Q 128.558 34.688 137.507 34.418 L 137.507 34.418 L 140.641 34.317 L 140.641 33.171 L 140.641 33.171 Q 140.641 30.997 139.706 29.961 L 139.706 29.961 L 139.706 29.961 Q 138.771 28.925 136.715 28.925 L 136.715 28.925 L 136.715 28.925 Q 134.406 28.925 131.491 30.34 L 131.491 30.34 L 130.631 28.2 L 130.631 28.2 Q 131.996 27.458 133.622 27.037 L 133.622 27.037 L 133.622 27.037 Q 135.249 26.616 136.883 26.616 L 136.883 26.616 L 136.883 26.616 Q 140.186 26.616 141.779 28.082 L 141.779 28.082 L 141.779 28.082 Q 143.371 29.548 143.371 32.784 L 143.371 32.784 L 143.371 45.389 Z  M 134.979 43.417 L 134.979 43.417 L 134.979 43.417 Q 137.591 43.417 139.083 41.985 L 139.083 41.985 L 139.083 41.985 Q 140.574 40.552 140.574 37.974 L 140.574 37.974 L 140.574 36.306 L 137.776 36.424 L 137.776 36.424 Q 134.44 36.542 132.965 37.46 L 132.965 37.46 L 132.965 37.46 Q 131.491 38.378 131.491 40.316 L 131.491 40.316 L 131.491 40.316 Q 131.491 41.833 132.409 42.625 L 132.409 42.625 L 132.409 42.625 Q 133.328 43.417 134.979 43.417 Z  M 153.806 43.417 L 153.806 43.417 L 153.806 43.417 Q 154.548 43.417 155.238 43.308 L 155.238 43.308 L 155.238 43.308 Q 155.929 43.198 156.334 43.08 L 156.334 43.08 L 156.334 45.22 L 156.334 45.22 Q 155.879 45.439 154.994 45.583 L 154.994 45.583 L 154.994 45.583 Q 154.109 45.726 153.402 45.726 L 153.402 45.726 L 153.402 45.726 Q 148.043 45.726 148.043 40.08 L 148.043 40.08 L 148.043 29.093 L 145.397 29.093 L 145.397 27.745 L 148.043 26.582 L 149.222 22.639 L 150.84 22.639 L 150.84 26.919 L 156.199 26.919 L 156.199 29.093 L 150.84 29.093 L 150.84 39.963 L 150.84 39.963 Q 150.84 41.631 151.632 42.524 L 151.632 42.524 L 151.632 42.524 Q 152.424 43.417 153.806 43.417 Z  M 170.644 40.35 L 170.644 40.35 L 170.644 40.35 Q 170.644 42.928 168.723 44.327 L 168.723 44.327 L 168.723 44.327 Q 166.802 45.726 163.331 45.726 L 163.331 45.726 L 163.331 45.726 Q 159.657 45.726 157.601 44.563 L 157.601 44.563 L 157.601 41.968 L 157.601 41.968 Q 158.932 42.642 160.457 43.03 L 160.457 43.03 L 160.457 43.03 Q 161.983 43.417 163.398 43.417 L 163.398 43.417 L 163.398 43.417 Q 165.589 43.417 166.769 42.718 L 166.769 42.718 L 166.769 42.718 Q 167.948 42.018 167.948 40.586 L 167.948 40.586 L 167.948 40.586 Q 167.948 39.508 167.013 38.741 L 167.013 38.741 L 167.013 38.741 Q 166.078 37.974 163.364 36.929 L 163.364 36.929 L 163.364 36.929 Q 160.786 35.969 159.699 35.252 L 159.699 35.252 L 159.699 35.252 Q 158.612 34.536 158.081 33.626 L 158.081 33.626 L 158.081 33.626 Q 157.551 32.716 157.551 31.452 L 157.551 31.452 L 157.551 31.452 Q 157.551 29.194 159.387 27.888 L 159.387 27.888 L 159.387 27.888 Q 161.224 26.582 164.426 26.582 L 164.426 26.582 L 164.426 26.582 Q 167.409 26.582 170.257 27.795 L 170.257 27.795 L 169.263 30.07 L 169.263 30.07 Q 166.482 28.925 164.224 28.925 L 164.224 28.925 L 164.224 28.925 Q 162.235 28.925 161.224 29.548 L 161.224 29.548 L 161.224 29.548 Q 160.213 30.172 160.213 31.267 L 160.213 31.267 L 160.213 31.267 Q 160.213 32.008 160.592 32.531 L 160.592 32.531 L 160.592 32.531 Q 160.971 33.053 161.814 33.525 L 161.814 33.525 L 161.814 33.525 Q 162.657 33.997 165.05 34.89 L 165.05 34.89 L 165.05 34.89 Q 168.336 36.087 169.49 37.3 L 169.49 37.3 L 169.49 37.3 Q 170.644 38.513 170.644 40.35 Z " fill="rgb(104,104,104)"/></g></svg>