<?xml version="1.0" encoding="UTF-8" standalone="no"?><!-- Generator: Gravit.io --><svg xmlns="http://www.w3.org/2000/svg" xmlns:xlink="http://www.w3.org/1999/xlink" style="isolation:isolate" viewBox="0 0 50 50" width="50pt" height="50pt"><defs><clipPath id="_clipPath_mHCNE1jPqU9Qb0YAftl8xyVdZSsUnvrt"><rect width="50" height="50"/></clipPath></defs><g clip-path="url(#_clipPath_mHCNE1jPqU9Qb0YAftl8xyVdZSsUnvrt)"><g><path d=" M 39.121 9.414 L 35.983 9.414 C 35.174 9.414 34.518 10.07 34.518 10.879 L 34.518 14.225 C 34.518 15.034 35.174 15.69 35.983 15.69 L 39.121 15.69 C 41.658 15.69 43.724 17.756 43.724 20.293 L 43.724 29.707 C 43.724 32.237 41.699 34.31 39.041 34.31 L 35.983 34.31 C 35.174 34.31 34.518 34.966 34.518 35.775 L 34.518 39.121 C 34.518 39.93 35.174 40.586 35.983 40.586 L 39.121 40.586 C 45.13 40.586 50 35.725 50 29.707 L 50 20.293 C 50 14.287 45.138 9.414 39.121 9.414 L 39.121 9.414 Z " fill="rgb(255,120,0)"/><path d=" M 29.707 50 L 10.879 50 C 6.603 50 3.138 46.542 3.138 42.259 L 3.138 10.879 C 3.138 10.07 3.794 9.414 4.603 9.414 L 35.983 9.414 C 36.792 9.414 37.448 10.07 37.448 10.879 L 37.448 42.259 C 37.448 46.533 33.99 50 29.707 50 Z " fill="rgb(255,200,0)"/><path d=" M 37.448 42.259 L 37.448 10.879 C 37.448 10.07 36.792 9.414 35.983 9.414 L 20.293 9.414 L 20.293 50 L 29.707 50 C 33.99 50 37.448 46.533 37.448 42.259 Z " fill="rgb(255,160,0)"/><path d=" M 40.58 7.503 C 40.466 5.258 38.712 3.399 36.476 3.164 C 35.681 3.08 34.898 3.201 34.19 3.5 C 33.038 2.284 31.423 1.569 29.707 1.569 C 28.429 1.569 27.192 1.972 26.164 2.691 C 24.715 0.998 22.595 0 20.293 0 C 17.99 0 15.87 0.998 14.421 2.691 C 13.393 1.972 12.156 1.569 10.879 1.569 C 9.163 1.569 7.547 2.284 6.396 3.5 C 5.834 3.263 5.227 3.138 4.603 3.138 C 2.035 3.138 -0.048 5.251 0.001 7.83 C 0.049 10.35 2.16 12.344 4.68 12.344 L 7.949 12.344 C 8.873 12.344 9.622 13.093 9.622 14.017 L 9.622 17.155 C 9.622 19.702 11.681 21.758 14.225 21.758 C 16.768 21.758 18.828 19.688 18.828 17.155 L 18.828 13.809 C 18.828 13 19.484 12.344 20.293 12.344 C 21.102 12.344 21.758 13 21.758 13.809 L 21.758 28.061 C 21.758 30.586 23.76 32.699 26.284 32.74 C 28.862 32.782 30.963 30.697 30.963 28.138 L 30.963 14.017 C 30.963 13.093 31.713 12.344 32.637 12.344 L 35.983 12.344 C 38.6 12.344 40.714 10.149 40.58 7.503 L 40.58 7.503 Z " fill="rgb(250,245,240)"/><path d=" M 20.293 12.344 C 21.102 12.344 21.758 13 21.758 13.809 L 21.758 28.061 C 21.758 30.586 23.76 32.699 26.284 32.74 C 28.862 32.782 30.963 30.697 30.963 28.138 L 30.963 14.017 C 30.963 13.093 31.713 12.344 32.637 12.344 L 35.983 12.344 C 38.6 12.344 40.714 10.149 40.58 7.503 C 40.466 5.258 38.712 3.399 36.476 3.164 C 35.68 3.081 34.898 3.201 34.19 3.501 C 33.038 2.284 31.423 1.569 29.707 1.569 C 28.429 1.569 27.192 1.972 26.164 2.691 C 24.715 0.998 22.595 0 20.293 0 L 20.293 12.344 Z " fill="rgb(230,227,220)"/></g></g></svg>